#!OML:ASF E:\VariousWalksJay\Project 1\Capture day 1\Session 1\Actor2.ASF
:FULLY-SPECIFIED
:DEGREES
919
root -4.55798 15.4535 21.6678 13.1501 -35.5838 -8.14274
lowerback 22.9593 -3.20132 5.45239
upperback 17.5814 -3.93318 -1.39328
thorax 6.41949 -1.66767 -3.9439
lowerneck 4.21252 1.23582 -0.189829
upperneck -7.67399 1.97636 4.32561
head -3.26513 0.813149 1.36585
rclavicle -8.11041e-014 3.26007e-014
rhumerus -30.5657 16.9658 -90.0473
rradius 70.7091
rwrist 4.08056
rhand -29.5553 -7.29141
rfingers 7.12502
rthumb -2.88799 -37.2516
lclavicle -8.11041e-014 3.26007e-014
lhumerus 27.4004 -20.2656 64.2813
lradius 63.9131
lwrist 56.1049
lhand -36.4444 9.11972
lfingers 7.12502
lthumb -9.53864 38.8838
rfemur -31.0581 4.48844 32.1463
rtibia 64.9139
rfoot -36.7736 -17.4242
rtoes -8.69786
lfemur -47.1043 2.95049 -12.7234
ltibia 14.4171
lfoot -9.6819 12.9209
ltoes -15.881
920
root -4.61213 15.5128 21.7949 13.4394 -35.6667 -8.22247
lowerback 22.3409 -3.21447 5.42353
upperback 17.4166 -3.9721 -1.44083
thorax 6.51292 -1.68049 -3.99443
lowerneck 3.83927 1.30566 -0.0305183
upperneck -7.0452 2.05272 4.32923
head -2.97831 0.861175 1.33173
rclavicle -1.74931e-014 7.87187e-014
rhumerus -30.8109 16.848 -90.2385
rradius 70.4196
rwrist 4.09483
rhand -29.5594 -7.20597
rfingers 7.12502
rthumb -2.89197 -37.1661
lclavicle -1.74931e-014 7.87187e-014
lhumerus 26.4777 -20.5397 64.7341
lradius 63.4253
lwrist 55.8452
lhand -36.4118 8.99224
lfingers 7.12502
lthumb -9.50715 38.7578
rfemur -30.2511 4.60119 32.1075
rtibia 63.8736
rfoot -36.7203 -17.6164
rtoes -8.69673
lfemur -46.9929 3.53911 -13.1259
ltibia 14.5736
lfoot -9.01654 13.3025
ltoes -15.3712
921
root -4.66578 15.5715 21.9218 13.7224 -35.7156 -8.28814
lowerback 21.7562 -3.23512 5.40316
upperback 17.2524 -4.01681 -1.48711
thorax 6.59302 -1.69585 -4.04631
lowerneck 3.51044 1.36881 0.128855
upperneck -6.48783 2.12132 4.33526
head -2.72723 0.90422 1.30029
rclavicle 7.4743e-014 -5.88403e-014
rhumerus -31.0549 16.7326 -90.4276
rradius 70.1318
rwrist 4.08915
rhand -29.5479 -7.1204
rfingers 7.12502
rthumb -2.88087 -37.0807
lclavicle 7.4743e-014 -5.88403e-014
lhumerus 25.5893 -20.829 65.1527
lradius 62.9495
lwrist 55.5737
lhand -36.3474 8.90318
lfingers 7.12502
lthumb -9.445 38.6715
rfemur -29.4492 4.72242 32.0695
rtibia 62.8158
rfoot -36.6483 -17.8781
rtoes -8.69912
lfemur -46.9369 4.11432 -13.5415
ltibia 14.8043
lfoot -8.39798 13.5282
ltoes -14.8579
922
root -4.71894 15.6288 22.0489 14.005 -35.7308 -8.34899
lowerback 21.1991 -3.26644 5.39482
upperback 17.0905 -4.07165 -1.53196
thorax 6.66353 -1.71553 -4.10104
lowerneck 3.23837 1.42917 0.282963
upperneck -6.023 2.18886 4.34785
head -2.52038 0.944967 1.27329
rclavicle 1.90833e-014 4.45278e-014
rhumerus -31.2962 16.6346 -90.6172
rradius 69.8493
rwrist 4.07296
rhand -29.5153 -7.04668
rfingers 7.12502
rthumb -2.84937 -37.0074
lclavicle 1.90833e-014 4.45278e-014
lhumerus 24.7365 -21.1266 65.525
lradius 62.4859
lwrist 55.3563
lhand -36.3127 8.7715
lfingers 7.12502
lthumb -9.41155 38.5414
rfemur -28.6536 4.83851 32.0403
rtibia 61.7456
rfoot -36.5694 -18.1921
rtoes -8.66558
lfemur -46.9222 4.64532 -13.9405
ltibia 15.1211
lfoot -7.87156 13.6182
ltoes -14.3694
923
root -4.77168 15.684 22.1762 14.2905 -35.7229 -8.41029
lowerback 20.6705 -3.3012 5.39578
upperback 16.9295 -4.12814 -1.57109
thorax 6.72347 -1.73594 -4.15381
lowerneck 3.0141 1.48088 0.425311
upperneck -5.64256 2.24704 4.36507
head -2.35211 0.979604 1.25112
rclavicle 1.08139e-013 -3.26007e-014
rhumerus -31.5419 16.5535 -90.7998
rradius 69.583
rwrist 4.04485
rhand -29.471 -6.98529
rfingers 7.12502
rthumb -2.80657 -36.9466
lclavicle 1.08139e-013 -3.26007e-014
lhumerus 23.9159 -21.4372 65.8685
lradius 62.0422
lwrist 55.1904
lhand -36.2277 8.75664
lfingers 7.12502
lthumb -9.32952 38.5302
rfemur -27.8685 4.94933 32.0245
rtibia 60.6693
rfoot -36.487 -18.5527
rtoes -8.59171
lfemur -46.9393 5.11804 -14.3053
ltibia 15.5211
lfoot -7.41974 13.6403
ltoes -14.0195
924
root -4.82421 15.7374 22.3037 14.5784 -35.6925 -8.47726
lowerback 20.1653 -3.33794 5.41094
upperback 16.7704 -4.18438 -1.60265
thorax 6.77619 -1.75568 -4.2059
lowerneck 2.84484 1.52548 0.538536
upperneck -5.34561 2.29851 4.40008
head -2.22318 1.00921 1.24058
rclavicle -1.90833e-014 5.08889e-014
rhumerus -31.7983 16.4858 -90.9743
rradius 69.3371
rwrist 4.00695
rhand -29.4165 -6.93929
rfingers 7.12502
rthumb -2.75394 -36.9013
lclavicle -1.90833e-014 5.08889e-014
lhumerus 23.123 -21.7517 66.1981
lradius 61.6257
lwrist 55.1062
lhand -36.1403 8.76159
lfingers 7.12502
lthumb -9.24514 38.5389
rfemur -27.0878 5.03935 32.0287
rtibia 59.5861
rfoot -36.3981 -18.9622
rtoes -8.51481
lfemur -46.9775 5.52787 -14.6271
ltibia 15.9868
lfoot -7.02056 13.6561
ltoes -13.8341
925
root -4.87623 15.7887 22.4314 14.8696 -35.6548 -8.54541
lowerback 19.6809 -3.37161 5.42631
upperback 16.6116 -4.23603 -1.62823
thorax 6.82181 -1.77385 -4.25189
lowerneck 2.70677 1.563 0.625607
upperneck -5.10312 2.34207 4.44949
head -2.11899 1.0339 1.23978
rclavicle -9.85972e-014 1.39149e-013
rhumerus -32.0699 16.4371 -91.1421
rradius 69.1179
rwrist 3.95927
rhand -29.3621 -6.8967
rfingers 7.12502
rthumb -2.70141 -36.8593
lclavicle -9.85972e-014 1.39149e-013
lhumerus 22.3515 -22.0733 66.5111
lradius 61.244
lwrist 55.0888
lhand -36.0623 8.79566
lfingers 7.12502
lthumb -9.16995 38.5763
rfemur -26.3169 5.10504 32.0437
rtibia 58.4975
rfoot -36.3072 -19.3958
rtoes -8.40708
lfemur -47.0401 5.89588 -14.9213
ltibia 16.497
lfoot -6.64821 13.6967
ltoes -13.8113
926
root -4.92785 15.8382 22.5592 15.1612 -35.6246 -8.61352
lowerback 19.2082 -3.39315 5.44445
upperback 16.4551 -4.27191 -1.64999
thorax 6.86799 -1.7842 -4.29772
lowerneck 2.56155 1.5847 0.703998
upperneck -4.86761 2.36343 4.49838
head -2.01592 1.04793 1.24112
rclavicle 2.22639e-014 4.13472e-014
rhumerus -32.3639 16.3888 -91.3012
rradius 68.9316
rwrist 3.90469
rhand -29.3156 -6.86442
rfingers 7.12502
rthumb -2.65652 -36.8276
lclavicle 2.22639e-014 4.13472e-014
lhumerus 21.6066 -22.418 66.8099
lradius 60.8998
lwrist 55.1202
lhand -35.9946 8.85957
lfingers 7.12502
lthumb -9.10463 38.6431
rfemur -25.5494 5.14286 32.063
rtibia 57.4017
rfoot -36.2071 -19.8415
rtoes -8.29753
lfemur -47.1131 6.2317 -15.19
ltibia 17.0272
lfoot -6.28535 13.8043
ltoes -13.92
927
root -4.97895 15.8859 22.6873 15.447 -35.6112 -8.68108
lowerback 18.7507 -3.40093 5.45656
upperback 16.3019 -4.29095 -1.66775
thorax 6.91456 -1.7871 -4.33809
lowerneck 2.39829 1.59442 0.768758
upperneck -4.61467 2.36615 4.54216
head -1.90416 1.05389 1.24378
rclavicle 9.06458e-014 -1.35174e-014
rhumerus -32.6806 16.3465 -91.4512
rradius 68.78
rwrist 3.85451
rhand -29.2763 -6.85149
rfingers 7.12502
rthumb -2.61858 -36.8152
lclavicle 9.06458e-014 -1.35174e-014
lhumerus 20.8799 -22.7913 67.095
lradius 60.5953
lwrist 55.1499
lhand -35.9701 8.90323
lfingers 7.12502
lthumb -9.08095 38.6877
rfemur -24.7782 5.15014 32.0816
rtibia 56.2993
rfoot -36.0977 -20.2834
rtoes -8.1843
lfemur -47.1877 6.55909 -15.4472
ltibia 17.5644
lfoot -5.9114 13.9853
ltoes -14.1328
928
root -5.02939 15.9321 22.8158 15.7196 -35.6338 -8.74761
lowerback 18.3136 -3.3878 5.45989
upperback 16.1526 -4.28403 -1.68481
thorax 6.96048 -1.77818 -4.37581
lowerneck 2.21093 1.59401 0.823619
upperneck -4.3353 2.35247 4.58248
head -1.77988 1.053 1.24753
rclavicle 2.06736e-014 -1.35174e-014
rhumerus -33.0238 16.3051 -91.5918
rradius 68.6601
rwrist 3.79958
rhand -29.2583 -6.8383
rfingers 7.12502
rthumb -2.60119 -36.8022
lclavicle 2.06736e-014 -1.35174e-014
lhumerus 20.1703 -23.197 67.3667
lradius 60.3338
lwrist 55.1762
lhand -35.9596 8.95201
lfingers 7.12502
lthumb -9.07079 38.737
rfemur -23.9931 5.13341 32.0915
rtibia 55.1919
rfoot -35.9878 -20.6911
rtoes -8.02234
lfemur -47.2485 6.90062 -15.7018
ltibia 18.0997
lfoot -5.5129 14.247
ltoes -14.4165
929
root -5.07902 15.9762 22.9448 15.9773 -35.6986 -8.81949
lowerback 17.9127 -3.36098 5.44519
upperback 16.0016 -4.26024 -1.69635
thorax 6.99035 -1.76383 -4.39769
lowerneck 1.99934 1.59278 0.870621
upperneck -4.0182 2.33342 4.58949
head -1.63928 1.05165 1.24222
rclavicle 3.18055e-014 5.80451e-014
rhumerus -33.3952 16.2965 -91.7198
rradius 68.5685
rwrist 3.72655
rhand -29.254 -6.82039
rfingers 7.12502
rthumb -2.59701 -36.7843
lclavicle 3.18055e-014 5.80451e-014
lhumerus 19.4537 -23.6073 67.6344
lradius 60.1168
lwrist 55.209
lhand -35.9453 9.01243
lfingers 7.12502
lthumb -9.057 38.798
rfemur -23.1872 5.0955 32.0935
rtibia 54.0857
rfoot -35.8764 -21.0549
rtoes -7.83042
lfemur -47.2929 7.29321 -15.9746
ltibia 18.6363
lfoot -5.07984 14.5553
ltoes -14.8018
930
root -5.12757 16.0181 23.0746 16.2214 -35.8118 -8.89777
lowerback 17.5422 -3.32236 5.41297
upperback 15.8512 -4.22221 -1.7054
thorax 7.00899 -1.74496 -4.40723
lowerneck 1.77323 1.59758 0.907332
upperneck -3.67998 2.31967 4.56989
head -1.49008 1.05442 1.23027
rclavicle -7.63333e-014 6.99722e-014
rhumerus -33.7833 16.331 -91.8349
rradius 68.4948
rwrist 3.6585
rhand -29.2596 -6.81136
rfingers 7.12502
rthumb -2.60242 -36.7752
lclavicle -7.63333e-014 6.99722e-014
lhumerus 18.7269 -24.0211 67.8965
lradius 59.9424
lwrist 55.2205
lhand -35.9467 9.05721
lfingers 7.12502
lthumb -9.05836 38.8427
rfemur -22.3652 5.03812 32.0814
rtibia 52.9884
rfoot -35.7618 -21.3588
rtoes -7.61091
lfemur -47.3183 7.72947 -16.2545
ltibia 19.1775
lfoot -4.634 14.9046
ltoes -15.2574
931
root -5.17498 16.0574 23.205 16.4546 -35.9752 -8.98495
lowerback 17.1996 -3.27123 5.36806
upperback 15.7005 -4.16843 -1.71033
thorax 7.01658 -1.72042 -4.40551
lowerneck 1.54832 1.60717 0.928179
upperneck -3.33544 2.31087 4.52426
head -1.33996 1.0605 1.21292
rclavicle -7.4743e-014 9.85972e-014
rhumerus -34.1848 16.4057 -91.9312
rradius 68.4365
rwrist 3.58573
rhand -29.2696 -6.80195
rfingers 7.12502
rthumb -2.61207 -36.7657
lclavicle -7.4743e-014 9.85972e-014
lhumerus 17.9856 -24.4349 68.1652
lradius 59.8134
lwrist 55.2163
lhand -35.9493 9.09312
lfingers 7.12502
lthumb -9.06091 38.8785
rfemur -21.535 4.96833 32.0558
rtibia 51.9131
rfoot -35.6298 -21.6173
rtoes -7.41881
lfemur -47.3278 8.21648 -16.541
ltibia 19.7258
lfoot -4.17409 15.2504
ltoes -15.8079
932
root -5.22101 16.0941 23.3363 16.6807 -36.1817 -9.0819
lowerback 16.8778 -3.21523 5.3199
upperback 15.5505 -4.10794 -1.71559
thorax 7.0161 -1.69341 -4.40178
lowerneck 1.34333 1.62738 0.934171
upperneck -3.01072 2.31708 4.45936
head -1.20072 1.07382 1.192
rclavicle 3.49861e-014 -3.89618e-014
rhumerus -34.5889 16.5238 -92.0148
rradius 68.3863
rwrist 3.51803
rhand -29.2686 -6.80563
rfingers 7.12502
rthumb -2.61107 -36.7694
lclavicle 3.49861e-014 -3.89618e-014
lhumerus 17.2288 -24.8452 68.4292
lradius 59.7294
lwrist 55.2145
lhand -35.9629 9.09025
lfingers 7.12502
lthumb -9.07404 38.8751
rfemur -20.7064 4.88252 32.0148
rtibia 50.8711
rfoot -35.4791 -21.821
rtoes -7.25133
lfemur -47.3238 8.74387 -16.8267
ltibia 20.2769
lfoot -3.71485 15.5492
ltoes -16.405
